<?xml version="1.0" encoding="UTF-8"?>
<svg width="700pt" height="700pt" version="1.1" viewBox="0 0 700 700" xmlns="http://www.w3.org/2000/svg">
 <g>
  <path d="m251.55 220.96c-3.2812-3.2852-7.7344-5.1289-12.375-5.1289s-9.0898 1.8438-12.371 5.1289l-46.672 46.664c-3.2852 3.2773-5.1289 7.7305-5.1289 12.371s1.8438 9.0938 5.1289 12.371l46.672 46.664c3.2617 3.3789 7.7422 5.3008 12.434 5.3438 4.6953 0.039063 9.207-1.8047 12.527-5.125 3.3203-3.3203 5.1641-7.832 5.125-12.527-0.039063-4.6953-1.9648-9.1758-5.3398-12.434l-34.301-34.293 34.301-34.301c3.2773-3.2812 5.1172-7.7305 5.1172-12.367 0-4.6406-1.8398-9.0859-5.1172-12.367z"/>
  <path d="m473.2 220.96c-3.2617-3.3789-7.7422-5.3008-12.434-5.3438-4.6953-0.039063-9.207 1.8047-12.527 5.125-3.3203 3.3203-5.1641 7.832-5.125 12.527 0.039063 4.6953 1.9648 9.1758 5.3398 12.434l34.301 34.301-34.301 34.293c-3.375 3.2617-5.3008 7.7422-5.3398 12.434-0.039062 4.6953 1.8047 9.207 5.125 12.527 3.3203 3.3203 7.832 5.1641 12.527 5.125 4.6914-0.039063 9.1719-1.9648 12.434-5.3398l46.672-46.664c3.2852-3.2812 5.1289-7.7344 5.1289-12.375 0-4.6406-1.8438-9.0898-5.1289-12.371z"/>
  <path d="m384.3 378.46-34.301 34.289-34.301-34.289c-3.2617-3.3789-7.7422-5.3008-12.434-5.3438-4.6953-0.039063-9.207 1.8047-12.527 5.125-3.3203 3.3203-5.1641 7.832-5.125 12.527 0.039063 4.6953 1.9648 9.1758 5.3398 12.434l46.672 46.664h0.003906c3.2773 3.2852 7.7305 5.1289 12.371 5.1289s9.0938-1.8438 12.371-5.1289l46.672-46.664h0.003906c3.375-3.2578 5.3008-7.7383 5.3398-12.434 0.039062-4.6953-1.8047-9.207-5.125-12.527-3.3203-3.3203-7.832-5.1641-12.527-5.125-4.6914 0.042968-9.1719 1.9648-12.434 5.3438z"/>
  <path d="m362.37 110.13c-3.2773-3.2852-7.7305-5.1289-12.371-5.1289s-9.0938 1.8438-12.371 5.1289l-46.676 46.672c-4.293 4.4453-5.9219 10.824-4.2891 16.785 1.6367 5.957 6.293 10.613 12.25 12.25 5.9609 1.6328 12.34 0.003906 16.785-4.2891l34.301-34.301 34.301 34.289c3.25 3.4219 7.7422 5.3867 12.461 5.4492 4.7188 0.058594 9.2617-1.7852 12.602-5.1211 3.3359-3.3398 5.1836-7.8789 5.125-12.598-0.058593-4.7188-2.0234-9.2148-5.4414-12.465z"/>
  <path d="m542.5 140h-52.5v-52.5c-0.015625-13.918-5.5508-27.266-15.395-37.105-9.8398-9.8438-23.188-15.379-37.105-15.395h-175c-13.918 0.015625-27.266 5.5508-37.105 15.395-9.8438 9.8398-15.379 23.188-15.395 37.105v52.5h-52.5c-13.918 0.015625-27.266 5.5508-37.105 15.395-9.8438 9.8398-15.379 23.188-15.395 37.105v175c0.015625 13.918 5.5508 27.266 15.395 37.105 9.8398 9.8438 23.188 15.379 37.105 15.395h52.5v52.5c0.015625 13.918 5.5508 27.266 15.395 37.105 9.8398 9.8438 23.188 15.379 37.105 15.395h175c13.918-0.015625 27.266-5.5508 37.105-15.395 9.8438-9.8398 15.379-23.188 15.395-37.105v-52.5h52.5c13.918-0.015625 27.266-5.5508 37.105-15.395 9.8438-9.8398 15.379-23.188 15.395-37.105v-175c-0.015625-13.918-5.5508-27.266-15.395-37.105-9.8398-9.8438-23.188-15.379-37.105-15.395zm17.5 227.5c-0.003906 4.6406-1.8477 9.0898-5.1289 12.371s-7.7305 5.125-12.371 5.1289h-52.5c-9.2812 0.011719-18.176 3.7031-24.738 10.262-6.5586 6.5625-10.25 15.457-10.262 24.738v52.5c-0.003906 4.6406-1.8477 9.0898-5.1289 12.371s-7.7305 5.125-12.371 5.1289h-175c-4.6406-0.003906-9.0898-1.8477-12.371-5.1289s-5.125-7.7305-5.1289-12.371v-52.5c-0.011719-9.2812-3.7031-18.176-10.262-24.738-6.5625-6.5586-15.457-10.25-24.738-10.262h-52.5c-4.6406-0.003906-9.0898-1.8477-12.371-5.1289s-5.125-7.7305-5.1289-12.371v-175c0.003906-4.6406 1.8477-9.0898 5.1289-12.371s7.7305-5.125 12.371-5.1289h52.5c9.2812-0.011719 18.176-3.7031 24.738-10.262 6.5586-6.5625 10.25-15.457 10.262-24.738v-52.5c0.003906-4.6406 1.8477-9.0898 5.1289-12.371s7.7305-5.125 12.371-5.1289h175c4.6406 0.003906 9.0898 1.8477 12.371 5.1289s5.125 7.7305 5.1289 12.371v52.5c0.011719 9.2812 3.7031 18.176 10.262 24.738 6.5625 6.5586 15.457 10.25 24.738 10.262h52.5c4.6406 0.003906 9.0898 1.8477 12.371 5.1289s5.125 7.7305 5.1289 12.371z"/>
 </g>
</svg>
